0
SECTION
2
HEADER
9
$INSUNITS
70
4
9
$ACADVER
1
AC1014
9
$HANDSEED
5
FFFF
0
ENDSEC
0
SECTION
2
TABLES
0
TABLE
2
VPORT
5
8
100
AcDbSymbolTable
0
ENDTAB
0
TABLE
2
LTYPE
5
5
100
AcDbSymbolTable
0
LTYPE
5
14
100
AcDbSymbolTableRecord
100
AcDbLinetypeTableRecord
2
BYBLOCK
70
0
0
LTYPE
5
15
100
AcDbSymbolTableRecord
100
AcDbLinetypeTableRecord
2
BYLAYER
70
0
0
ENDTAB
0
TABLE
2
LAYER
5
2
100
AcDbSymbolTable
70
2
0
LAYER
5
50
100
AcDbSymbolTableRecord
100
AcDbLayerTableRecord
2
0
70
0
6
CONTINUOUS
0
ENDTAB
0
TABLE
2
STYLE
5
3
100
AcDbSymbolTable
70
1
0
STYLE
5
11
100
AcDbSymbolTableRecord
100
AcDbTextStyleTableRecord
2
STANDARD
70
0
0
ENDTAB
0
TABLE
2
VIEW
5
6
100
AcDbSymbolTable
70
0
0
ENDTAB
0
TABLE
2
UCS
5
7
100
AcDbSymbolTable
70
0
0
ENDTAB
0
TABLE
2
APPID
5
9
100
AcDbSymbolTable
70
2
0
APPID
5
12
100
AcDbSymbolTableRecord
100
AcDbRegAppTableRecord
2
ACAD
70
0
0
ENDTAB
0
TABLE
2
DIMSTYLE
5
A
100
AcDbSymbolTable
70
1
0
ENDTAB
0
TABLE
2
BLOCK_RECORD
5
1
100
AcDbSymbolTable
70
1
0
BLOCK_RECORD
5
1F
100
AcDbSymbolTableRecord
100
AcDbBlockTableRecord
2
*MODEL_SPACE
0
BLOCK_RECORD
5
1B
100
AcDbSymbolTableRecord
100
AcDbBlockTableRecord
2
*PAPER_SPACE
0
ENDTAB
0
ENDSEC
0
SECTION
2
BLOCKS
0
BLOCK
5
20
100
AcDbEntity
100
AcDbBlockBegin
2
*MODEL_SPACE
0
ENDBLK
5
21
100
AcDbEntity
100
AcDbBlockEnd
0
BLOCK
5
1C
100
AcDbEntity
100
AcDbBlockBegin
2
*PAPER_SPACE
0
ENDBLK
5
1D
100
AcDbEntity
100
AcDbBlockEnd
0
ENDSEC
0
SECTION
2
ENTITIES
0
LWPOLYLINE
5
100
100
AcDbEntity
8
0
100
AcDbPolyline
90
10
70
1
43
0.0
10
-113.73369244467429
20
-202.91834061893837
42
0.4142135623730962
10
-109.23369244467432
20
-198.41834061893834
10
-109.23369244467438
20
-166.41834061893834
10
-113.42161360301203
20
-166.41834061893834
10
-113.42161360301205
20
-155.21834061893838
10
-126.15161360301204
20
-155.21834061893844
10
-126.15161360301202
20
-166.41834061893843
10
-130.40161360301201
20
-166.41834061893843
10
-130.40161360301195
20
-198.41834061893849
42
0.41421356237309159
10
-125.90161360301195
20
-202.9183406189384
0
CIRCLE
5
101
100
AcDbEntity
8
0
100
AcDbCircle
10
-119.786613603012
20
-192.49834061893841
30
0
40
3.495000000000001
210
8.7149489256572553e-32
220
1.7857487303660062e-46
230
1
0
CIRCLE
5
102
100
AcDbEntity
8
0
100
AcDbCircle
10
-119.78661360301201
20
-181.24834061893841
30
2.2204460492503131e-15
40
1.8449999999999993
210
3.7845682680259305e-32
220
7.7548222453880751e-47
230
1
0
LWPOLYLINE
5
103
100
AcDbEntity
8
0
100
AcDbPolyline
90
8
70
1
43
0.0
10
-123.78661360301206
20
-158.06834061893841
10
-115.78661360301204
20
-158.06834061893838
10
-115.78661360301206
20
-159.06834061893838
10
-116.28661360301206
20
-159.06834061893838
10
-116.28661360301206
20
-162.56834061893838
10
-123.28661360301204
20
-162.56834061893841
10
-123.28661360301204
20
-159.06834061893841
10
-123.78661360301206
20
-159.06834061893841
0
CIRCLE
5
104
100
AcDbEntity
8
0
100
AcDbCircle
10
-128.49661360301201
20
-172.24834061893844
30
0
40
1.237971005390923
210
-1.1458123896054798e-32
220
1.9721522630525293e-31
230
1
0
CIRCLE
5
105
100
AcDbEntity
8
0
100
AcDbCircle
10
-127.56812628448166
20
-169.55837764129328
30
0
40
0.94013874182312951
210
-1.1458123896053068e-32
220
-1.97215226305253e-31
230
1
0
CIRCLE
5
106
100
AcDbEntity
8
0
100
AcDbCircle
10
-112.00510092154238
20
-169.55837764129319
30
0
40
0.94013874182313006
210
-1.1458123896054284e-32
220
-2.3478428128839786e-47
230
1
0
CIRCLE
5
107
100
AcDbEntity
8
0
100
AcDbCircle
10
-111.07661360301201
20
-172.24834061893836
30
2.2204460492503131e-15
40
1.237971005390923
210
-1.1458123896054798e-32
220
1.9721522630525293e-31
230
1
0
LWPOLYLINE
5
108
100
AcDbEntity
8
0
100
AcDbPolyline
90
6
70
1
43
0.0
10
-109.23369244467438
20
-177.24834061893844
10
-133.90161360301198
20
-177.24834061893844
10
-133.90161360301198
20
-167.24834061893844
10
-109.23369244467438
20
-167.24834061893844
42
-0.41421356237309503
10
-107.23369244467438
20
-169.24834061893844
10
-107.23369244467438
20
-175.24834061893844
42
-0.41421356237309503
0
LINE
5
109
100
AcDbEntity
8
0
100
AcDbLine
10
-106.00000157952309
20
-172.24834061893844
30
0
11
-137.00000204145908
21
-172.24834061893844
31
0
0
CIRCLE
5
110
100
AcDbEntity
8
0
100
AcDbCircle
10
-111.07661360301201
20
-172.24834061893836
30
2.2204460492503131e-15
40
1.2500000000000022
210
0
220
0
230
1
0
LWPOLYLINE
5
111
100
AcDbEntity
8
0
100
AcDbPolyline
90
6
70
1
43
0.0
10
-133.90161360301198
20
-183.24834061893847
10
-136.90161360302514
20
-183.24834061894333
42
-0.41421356237357371
10
-140.90161360301198
20
-179.24834061896303
10
-140.90161360301198
20
-165.24834061893864
42
-0.41421356237302348
10
-136.90161360301326
20
-161.24834061893893
10
-133.90161360301201
20
-161.24834061893841
0
LWPOLYLINE
5
112
100
AcDbEntity
8
0
100
AcDbPolyline
90
4
70
1
43
0.0
10
-124.49661360301201
20
-170.99834061893844
10
-132.49661360301201
20
-170.99834061893844
42
0.99999999999999989
10
-132.49661360301201
20
-173.49834061893844
10
-124.49661360301201
20
-173.49834061893844
42
0.99999999999999989
0
LINE
5
113
100
AcDbEntity
8
0
100
AcDbLine
10
-124.49661360301201
20
-172.24834061893844
30
0
11
-132.49661360301201
21
-172.24834061893844
31
0
0
ENDSEC
0
SECTION
2
OBJECTS
0
DICTIONARY
5
C
100
AcDbDictionary
3
ACAD_GROUP
350
D
3
ACAD_MLINESTYLE
350
17
0
DICTIONARY
5
D
100
AcDbDictionary
0
DICTIONARY
5
1A
330
C
100
AcDbDictionary
0
DICTIONARY
5
17
100
AcDbDictionary
0
ENDSEC
0
EOF
