0
SECTION
2
HEADER
9
$INSUNITS
70
4
9
$ACADVER
1
AC1014
9
$HANDSEED
5
FFFF
0
ENDSEC
0
SECTION
2
TABLES
0
TABLE
2
VPORT
5
8
100
AcDbSymbolTable
0
ENDTAB
0
TABLE
2
LTYPE
5
5
100
AcDbSymbolTable
0
LTYPE
5
14
100
AcDbSymbolTableRecord
100
AcDbLinetypeTableRecord
2
BYBLOCK
70
0
0
LTYPE
5
15
100
AcDbSymbolTableRecord
100
AcDbLinetypeTableRecord
2
BYLAYER
70
0
0
ENDTAB
0
TABLE
2
LAYER
5
2
100
AcDbSymbolTable
70
2
0
LAYER
5
50
100
AcDbSymbolTableRecord
100
AcDbLayerTableRecord
2
0
70
0
6
CONTINUOUS
0
ENDTAB
0
TABLE
2
STYLE
5
3
100
AcDbSymbolTable
70
1
0
STYLE
5
11
100
AcDbSymbolTableRecord
100
AcDbTextStyleTableRecord
2
STANDARD
70
0
0
ENDTAB
0
TABLE
2
VIEW
5
6
100
AcDbSymbolTable
70
0
0
ENDTAB
0
TABLE
2
UCS
5
7
100
AcDbSymbolTable
70
0
0
ENDTAB
0
TABLE
2
APPID
5
9
100
AcDbSymbolTable
70
2
0
APPID
5
12
100
AcDbSymbolTableRecord
100
AcDbRegAppTableRecord
2
ACAD
70
0
0
ENDTAB
0
TABLE
2
DIMSTYLE
5
A
100
AcDbSymbolTable
70
1
0
ENDTAB
0
TABLE
2
BLOCK_RECORD
5
1
100
AcDbSymbolTable
70
1
0
BLOCK_RECORD
5
1F
100
AcDbSymbolTableRecord
100
AcDbBlockTableRecord
2
*MODEL_SPACE
0
BLOCK_RECORD
5
1B
100
AcDbSymbolTableRecord
100
AcDbBlockTableRecord
2
*PAPER_SPACE
0
ENDTAB
0
ENDSEC
0
SECTION
2
BLOCKS
0
BLOCK
5
20
100
AcDbEntity
100
AcDbBlockBegin
2
*MODEL_SPACE
0
ENDBLK
5
21
100
AcDbEntity
100
AcDbBlockEnd
0
BLOCK
5
1C
100
AcDbEntity
100
AcDbBlockBegin
2
*PAPER_SPACE
0
ENDBLK
5
1D
100
AcDbEntity
100
AcDbBlockEnd
0
ENDSEC
0
SECTION
2
ENTITIES
0
LWPOLYLINE
5
100
100
AcDbEntity
8
0
100
AcDbPolyline
90
34
70
1
43
0.0
10
90.000000000010942
20
117.23805294762981
10
-90.000000000000412
20
117.23805294762981
42
0.41421356237309293
10
-99.999999999998138
20
107.23805294763204
10
-99.999999999997087
20
102.23805294763864
10
-94.99999999999396
20
97.238052947637016
10
-84.999999999996618
20
97.23805294763531
10
-79.999999999983842
20
92.238052947633491
10
-79.999999999987637
20
42.238052947633392
10
-75.999999999987637
20
42.238052947633605
10
-75.999999999987409
20
32.238052947633598
10
-80.000000000000625
20
32.238052947633506
10
-80.000000000001222
20
22.238052947633516
10
-85.000000000001563
20
17.238052947633523
10
-94.999999999994614
20
17.23805294762834
10
-99.999999999995254
20
12.23805294762747
10
-99.999999999995282
20
-62.436250120808538
42
0.24968407950991242
10
-95.580807983061675
20
-70.734116247478894
10
-8.9292927729010483
20
-129.01240857559574
42
0.30499774916005445
10
8.92929277291055
20
-129.01240857559566
10
95.580807983071111
20
-70.734116247478809
42
0.2496840795099112
10
100.00000000000475
20
-62.436250120808516
10
99.999999999995254
20
12.238052947627473
10
94.999999999994614
20
17.238052947631832
10
85.000000000001563
20
17.238052947633548
10
80.000000000001222
20
22.238052947633527
10
80.000000000000625
20
32.238052947633349
10
75.999999999987438
20
32.238052947633506
10
75.999999999987637
20
42.238052947633555
10
79.999999999987622
20
42.238052947633477
10
79.999999999983842
20
92.238052947633491
10
84.999999999996618
20
97.23805294763531
10
94.99999999999396
20
97.238052947637058
10
99.999999999997087
20
102.23805294763885
10
100.00000000000183
20
107.23805294763876
42
0.41421356237309137
0
LINE
5
101
100
AcDbEntity
8
0
100
AcDbLine
10
0
20
-140
30
0
11
-8.8817841970012523e-15
21
180
31
0
0
LINE
5
102
100
AcDbEntity
8
0
100
AcDbLine
10
-150
20
0
30
0
11
150
21
0
31
0
0
CIRCLE
5
103
100
AcDbEntity
8
0
100
AcDbCircle
10
0
20
0
30
0
40
150.00000000000003
210
0
220
0
230
1
0
ARC
5
104
100
AcDbEntity
8
0
100
AcDbCircle
10
80
20
-42.761947052371944
30
0
40
1.7499999999999982
210
0
220
0
230
1
100
AcDbArc
50
-180
51
0
0
LWPOLYLINE
5
105
100
AcDbEntity
8
0
100
AcDbPolyline
90
4
70
1
43
0.0
10
58.499999999987686
20
42.238052947634102
10
54.499999999987679
20
42.238052947634166
10
54.499999999987381
20
32.238052947634174
10
58.499999999987381
20
32.238052947634081
0
LWPOLYLINE
5
106
100
AcDbEntity
8
0
100
AcDbPolyline
90
4
70
1
43
0.0
10
-54.499999999987388
20
32.238052947634166
10
-58.499999999987381
20
32.238052947634046
10
-58.499999999987686
20
42.23805294763406
10
-54.499999999987672
20
42.238052947634166
0
CIRCLE
5
107
100
AcDbEntity
8
0
100
AcDbCircle
10
-19.500000000000004
20
-112.26194705237198
30
0
40
2.0000000000000036
210
0
220
0
230
1
0
CIRCLE
5
108
100
AcDbEntity
8
0
100
AcDbCircle
10
19.5
20
-112.26194705237198
30
0
40
2.0000000000000036
210
0
220
0
230
1
0
CIRCLE
5
109
100
AcDbEntity
8
0
100
AcDbCircle
10
12.499999999999998
20
-90.261947052371966
30
0
40
1.7500000000000002
210
0
220
0
230
1
0
CIRCLE
5
110
100
AcDbEntity
8
0
100
AcDbCircle
10
-12.500000000000002
20
-90.261947052371966
30
0
40
1.7500000000000002
210
0
220
0
230
1
0
CIRCLE
5
111
100
AcDbEntity
8
0
100
AcDbCircle
10
12.499999999999998
20
-65.26194705237198
30
0
40
1.7500000000000002
210
0
220
0
230
1
0
CIRCLE
5
112
100
AcDbEntity
8
0
100
AcDbCircle
10
-12.500000000000002
20
-65.26194705237198
30
0
40
1.7500000000000002
210
0
220
0
230
1
0
LINE
5
113
100
AcDbEntity
8
0
100
AcDbLine
10
12.5
20
-90.261947052371994
30
0
11
-12.500000000000002
21
-65.26194705237198
31
0
0
LINE
5
114
100
AcDbEntity
8
0
100
AcDbLine
10
12.499999999999998
20
-65.26194705237198
30
0
11
-12.500000000000002
21
-90.261947052371994
31
0
0
LWPOLYLINE
5
115
100
AcDbEntity
8
0
100
AcDbPolyline
90
4
70
1
43
0.0
10
14.999999999999996
20
-86.26194705237198
10
9.9999999999999982
20
-86.26194705237198
10
9.9999999999999929
20
-69.261947052371923
10
14.999999999999998
20
-69.261947052371923
0
LWPOLYLINE
5
116
100
AcDbEntity
8
0
100
AcDbPolyline
90
4
70
1
43
0.0
10
-9.9999999999999964
20
-69.261947052371951
10
-15.000000000000002
20
-69.261947052371951
10
-15
20
-86.261947052371994
10
-10
20
-86.26194705237198
0
LINE
5
117
100
AcDbEntity
8
0
100
AcDbLine
10
94.149083351050564
20
57.23805294763352
30
0
11
-105
21
57.238052947635211
31
0
0
CIRCLE
5
118
100
AcDbEntity
8
0
100
AcDbCircle
10
80
20
-42.761947052371944
30
0
40
1.7500000000000027
210
0
220
0
230
1
0
CIRCLE
5
119
100
AcDbEntity
8
0
100
AcDbCircle
10
40
20
-42.761947052371944
30
0
40
1.7500000000000027
210
0
220
0
230
1
0
CIRCLE
5
120
100
AcDbEntity
8
0
100
AcDbCircle
10
0
20
-42.761947052371944
30
0
40
1.7500000000000027
210
0
220
0
230
1
0
CIRCLE
5
121
100
AcDbEntity
8
0
100
AcDbCircle
10
-40
20
-42.761947052371944
30
0
40
1.7500000000000027
210
0
220
0
230
1
0
CIRCLE
5
122
100
AcDbEntity
8
0
100
AcDbCircle
10
-80
20
-42.761947052371944
30
0
40
1.7500000000000027
210
0
220
0
230
1
0
CIRCLE
5
123
100
AcDbEntity
8
0
100
AcDbCircle
10
80
20
-37.261947052371944
30
0
40
1.7500000000000027
210
0
220
0
230
1
0
CIRCLE
5
124
100
AcDbEntity
8
0
100
AcDbCircle
10
40
20
-37.261947052371944
30
0
40
1.7500000000000027
210
0
220
0
230
1
0
CIRCLE
5
125
100
AcDbEntity
8
0
100
AcDbCircle
10
0
20
-37.261947052371944
30
0
40
1.7500000000000027
210
0
220
0
230
1
0
CIRCLE
5
126
100
AcDbEntity
8
0
100
AcDbCircle
10
-40
20
-37.261947052371944
30
0
40
1.7500000000000027
210
0
220
0
230
1
0
CIRCLE
5
127
100
AcDbEntity
8
0
100
AcDbCircle
10
-80
20
-37.261947052371944
30
0
40
1.7500000000000027
210
0
220
0
230
1
0
CIRCLE
5
128
100
AcDbEntity
8
0
100
AcDbCircle
10
80
20
-31.761947052371941
30
0
40
1.7500000000000027
210
0
220
0
230
1
0
CIRCLE
5
129
100
AcDbEntity
8
0
100
AcDbCircle
10
40
20
-31.761947052371941
30
0
40
1.7500000000000027
210
0
220
0
230
1
0
CIRCLE
5
130
100
AcDbEntity
8
0
100
AcDbCircle
10
0
20
-31.761947052371941
30
0
40
1.7500000000000027
210
0
220
0
230
1
0
CIRCLE
5
131
100
AcDbEntity
8
0
100
AcDbCircle
10
-40
20
-31.761947052371941
30
0
40
1.7500000000000027
210
0
220
0
230
1
0
CIRCLE
5
132
100
AcDbEntity
8
0
100
AcDbCircle
10
-80
20
-31.761947052371941
30
0
40
1.7500000000000027
210
0
220
0
230
1
0
CIRCLE
5
133
100
AcDbEntity
8
0
100
AcDbCircle
10
80
20
-26.261947052371937
30
0
40
1.7500000000000027
210
0
220
0
230
1
0
CIRCLE
5
134
100
AcDbEntity
8
0
100
AcDbCircle
10
40
20
-26.261947052371937
30
0
40
1.7500000000000027
210
0
220
0
230
1
0
CIRCLE
5
135
100
AcDbEntity
8
0
100
AcDbCircle
10
0
20
-26.261947052371937
30
0
40
1.7500000000000027
210
0
220
0
230
1
0
CIRCLE
5
136
100
AcDbEntity
8
0
100
AcDbCircle
10
-40
20
-26.261947052371937
30
0
40
1.7500000000000027
210
0
220
0
230
1
0
CIRCLE
5
137
100
AcDbEntity
8
0
100
AcDbCircle
10
-80
20
-26.261947052371937
30
0
40
1.7500000000000027
210
0
220
0
230
1
0
CIRCLE
5
138
100
AcDbEntity
8
0
100
AcDbCircle
10
80
20
-20.761947052371941
30
0
40
1.7500000000000027
210
0
220
0
230
1
0
CIRCLE
5
139
100
AcDbEntity
8
0
100
AcDbCircle
10
40
20
-20.761947052371941
30
0
40
1.7500000000000027
210
0
220
0
230
1
0
CIRCLE
5
140
100
AcDbEntity
8
0
100
AcDbCircle
10
0
20
-20.761947052371941
30
0
40
1.7500000000000027
210
0
220
0
230
1
0
CIRCLE
5
141
100
AcDbEntity
8
0
100
AcDbCircle
10
-40
20
-20.761947052371941
30
0
40
1.7500000000000027
210
0
220
0
230
1
0
CIRCLE
5
142
100
AcDbEntity
8
0
100
AcDbCircle
10
-80
20
-20.761947052371941
30
0
40
1.7500000000000027
210
0
220
0
230
1
0
CIRCLE
5
143
100
AcDbEntity
8
0
100
AcDbCircle
10
80
20
-15.261947052371942
30
0
40
1.7500000000000027
210
0
220
0
230
1
0
CIRCLE
5
144
100
AcDbEntity
8
0
100
AcDbCircle
10
40
20
-15.261947052371942
30
0
40
1.7500000000000027
210
0
220
0
230
1
0
CIRCLE
5
145
100
AcDbEntity
8
0
100
AcDbCircle
10
0
20
-15.261947052371942
30
0
40
1.7500000000000027
210
0
220
0
230
1
0
CIRCLE
5
146
100
AcDbEntity
8
0
100
AcDbCircle
10
-40
20
-15.261947052371942
30
0
40
1.7500000000000027
210
0
220
0
230
1
0
CIRCLE
5
147
100
AcDbEntity
8
0
100
AcDbCircle
10
-80
20
-15.261947052371942
30
0
40
1.7500000000000027
210
0
220
0
230
1
0
CIRCLE
5
148
100
AcDbEntity
8
0
100
AcDbCircle
10
80
20
-9.7619470523719407
30
0
40
1.7500000000000027
210
0
220
0
230
1
0
CIRCLE
5
149
100
AcDbEntity
8
0
100
AcDbCircle
10
40
20
-9.7619470523719407
30
0
40
1.7500000000000027
210
0
220
0
230
1
0
CIRCLE
5
150
100
AcDbEntity
8
0
100
AcDbCircle
10
0
20
-9.7619470523719407
30
0
40
1.7500000000000027
210
0
220
0
230
1
0
CIRCLE
5
151
100
AcDbEntity
8
0
100
AcDbCircle
10
-40
20
-9.7619470523719407
30
0
40
1.7500000000000027
210
0
220
0
230
1
0
CIRCLE
5
152
100
AcDbEntity
8
0
100
AcDbCircle
10
-80
20
-9.7619470523719407
30
0
40
1.7500000000000027
210
0
220
0
230
1
0
CIRCLE
5
153
100
AcDbEntity
8
0
100
AcDbCircle
10
80
20
-4.2619470523719372
30
0
40
1.7500000000000027
210
0
220
0
230
1
0
CIRCLE
5
154
100
AcDbEntity
8
0
100
AcDbCircle
10
40
20
-4.2619470523719372
30
0
40
1.7500000000000027
210
0
220
0
230
1
0
CIRCLE
5
155
100
AcDbEntity
8
0
100
AcDbCircle
10
0
20
-4.2619470523719372
30
0
40
1.7500000000000027
210
0
220
0
230
1
0
CIRCLE
5
156
100
AcDbEntity
8
0
100
AcDbCircle
10
-40
20
-4.2619470523719372
30
0
40
1.7500000000000027
210
0
220
0
230
1
0
CIRCLE
5
157
100
AcDbEntity
8
0
100
AcDbCircle
10
-80
20
-4.2619470523719372
30
0
40
1.7500000000000027
210
0
220
0
230
1
0
CIRCLE
5
158
100
AcDbEntity
8
0
100
AcDbCircle
10
80
20
1.2380529476280611
30
0
40
1.7500000000000027
210
0
220
0
230
1
0
CIRCLE
5
159
100
AcDbEntity
8
0
100
AcDbCircle
10
40
20
1.2380529476280611
30
0
40
1.7500000000000027
210
0
220
0
230
1
0
CIRCLE
5
160
100
AcDbEntity
8
0
100
AcDbCircle
10
0
20
1.2380529476280611
30
0
40
1.7500000000000027
210
0
220
0
230
1
0
CIRCLE
5
161
100
AcDbEntity
8
0
100
AcDbCircle
10
-40
20
1.2380529476280611
30
0
40
1.7500000000000027
210
0
220
0
230
1
0
CIRCLE
5
162
100
AcDbEntity
8
0
100
AcDbCircle
10
-80
20
1.2380529476280611
30
0
40
1.7500000000000027
210
0
220
0
230
1
0
CIRCLE
5
163
100
AcDbEntity
8
0
100
AcDbCircle
10
80
20
6.7380529476280593
30
0
40
1.7500000000000027
210
0
220
0
230
1
0
CIRCLE
5
164
100
AcDbEntity
8
0
100
AcDbCircle
10
40
20
6.7380529476280593
30
0
40
1.7500000000000027
210
0
220
0
230
1
0
CIRCLE
5
165
100
AcDbEntity
8
0
100
AcDbCircle
10
0
20
6.7380529476280593
30
0
40
1.7500000000000027
210
0
220
0
230
1
0
CIRCLE
5
166
100
AcDbEntity
8
0
100
AcDbCircle
10
-40
20
6.7380529476280593
30
0
40
1.7500000000000027
210
0
220
0
230
1
0
CIRCLE
5
167
100
AcDbEntity
8
0
100
AcDbCircle
10
-80
20
6.7380529476280593
30
0
40
1.7500000000000027
210
0
220
0
230
1
0
CIRCLE
5
168
100
AcDbEntity
8
0
100
AcDbCircle
10
80
20
12.238052947628058
30
0
40
1.7500000000000027
210
0
220
0
230
1
0
CIRCLE
5
169
100
AcDbEntity
8
0
100
AcDbCircle
10
40
20
12.238052947628058
30
0
40
1.7500000000000027
210
0
220
0
230
1
0
CIRCLE
5
170
100
AcDbEntity
8
0
100
AcDbCircle
10
0
20
12.238052947628058
30
0
40
1.7500000000000027
210
0
220
0
230
1
0
CIRCLE
5
171
100
AcDbEntity
8
0
100
AcDbCircle
10
-40
20
12.238052947628058
30
0
40
1.7500000000000027
210
0
220
0
230
1
0
CIRCLE
5
172
100
AcDbEntity
8
0
100
AcDbCircle
10
-80
20
12.238052947628058
30
0
40
1.7500000000000027
210
0
220
0
230
1
0
LWPOLYLINE
5
173
100
AcDbEntity
8
0
100
AcDbPolyline
90
4
70
1
43
0.0
10
-40
20
50
10
-60
20
50
10
-60
20
60
10
-40
20
60
0
LWPOLYLINE
5
174
100
AcDbEntity
8
0
100
AcDbPolyline
90
4
70
1
43
0.0
10
-30
20
50
10
-10
20
50
10
-10
20
60
10
-30
20
60
0
LWPOLYLINE
5
175
100
AcDbEntity
8
0
100
AcDbPolyline
90
4
70
1
43
0.0
10
10
20
60
10
30
20
60
10
30
20
50
10
10
20
50
0
LWPOLYLINE
5
176
100
AcDbEntity
8
0
100
AcDbPolyline
90
4
70
1
43
0.0
10
40
20
60
10
60
20
60
10
60
20
50
10
40
20
50
0
ENDSEC
0
SECTION
2
OBJECTS
0
DICTIONARY
5
C
100
AcDbDictionary
3
ACAD_GROUP
350
D
3
ACAD_MLINESTYLE
350
17
0
DICTIONARY
5
D
100
AcDbDictionary
0
DICTIONARY
5
1A
330
C
100
AcDbDictionary
0
DICTIONARY
5
17
100
AcDbDictionary
0
ENDSEC
0
EOF
